<svg width="6" height="9" viewBox="0 0 6 9" fill="none" xmlns="http://www.w3.org/2000/svg">
<path d="M0.228387 4.941C0.228387 3.67967 0.43372 2.697 0.844387 1.993C1.25505 1.28167 1.97372 0.926 3.00039 0.926C4.01972 0.926 4.73472 1.28167 5.14539 1.993C5.55605 2.697 5.76139 3.67967 5.76139 4.941C5.76139 6.22433 5.55605 7.22167 5.14539 7.933C4.73472 8.64433 4.01972 9 3.00039 9C1.97372 9 1.25505 8.64433 0.844387 7.933C0.43372 7.22167 0.228387 6.22433 0.228387 4.941ZM4.77139 4.941C4.77139 4.303 4.72739 3.764 4.63939 3.324C4.55872 2.87667 4.38639 2.51733 4.12239 2.246C3.86572 1.97467 3.49172 1.839 3.00039 1.839C2.50172 1.839 2.12039 1.97467 1.85639 2.246C1.59972 2.51733 1.42739 2.87667 1.33939 3.324C1.25872 3.764 1.21839 4.303 1.21839 4.941C1.21839 5.601 1.25872 6.15467 1.33939 6.602C1.42739 7.04933 1.59972 7.40867 1.85639 7.68C2.12039 7.95133 2.50172 8.087 3.00039 8.087C3.49172 8.087 3.86572 7.95133 4.12239 7.68C4.38639 7.40867 4.55872 7.04933 4.63939 6.602C4.72739 6.15467 4.77139 5.601 4.77139 4.941Z" fill="#575445"/>
</svg>
